<svg width="1192" height="332" viewBox="0 0 1192 332" xmlns="http://www.w3.org/2000/svg">

  <defs>
    <filter id="softGlow" x="-60%" y="-60%" width="220%" height="220%">
      <feGaussianBlur stdDeviation="3.2" result="blur"/>
      <feMerge>
        <feMergeNode in="blur"/>
        <feMergeNode in="blur"/>
        <feMergeNode in="SourceGraphic"/>
      </feMerge>
    </filter>
    <filter id="hardGlow" x="-80%" y="-80%" width="260%" height="260%">
      <feGaussianBlur stdDeviation="6" result="blur"/>
      <feMerge>
        <feMergeNode in="blur"/>
        <feMergeNode in="SourceGraphic"/>
      </feMerge>
    </filter>
    <filter id="dropShadow" x="-40%" y="-40%" width="180%" height="180%">
      <feDropShadow dx="0" dy="6" stdDeviation="10" flood-color="#000000" flood-opacity="0.85"/>
    </filter>
    <linearGradient id="bevelTop" x1="0" y1="0" x2="0" y2="1">
      <stop offset="0" stop-color="#ffffff" stop-opacity="0.55"/>
      <stop offset="1" stop-color="#ffffff" stop-opacity="0.02"/>
    </linearGradient>
    <linearGradient id="panelFill" x1="0" y1="0" x2="0" y2="1">
      <stop offset="0" stop-color="#141414" stop-opacity="0.95"/>
      <stop offset="1" stop-color="#000000" stop-opacity="0.98"/>
    </linearGradient>
    <radialGradient id="bgGlow" cx="50%" cy="0%" r="90%">
      <stop offset="0%" stop-color="#ffffff" stop-opacity="0.07"/>
      <stop offset="55%" stop-color="#ffffff" stop-opacity="0.02"/>
      <stop offset="100%" stop-color="#000000" stop-opacity="0"/>
    </radialGradient>
    <linearGradient id="fadeEdge" x1="0" y1="0" x2="1" y2="0">
      <stop offset="0" stop-color="#ffffff" stop-opacity="0"/>
      <stop offset="0.5" stop-color="#ffffff" stop-opacity="0.9"/>
      <stop offset="1" stop-color="#ffffff" stop-opacity="0"/>
    </linearGradient>
    <pattern id="scanlines" width="4" height="4" patternUnits="userSpaceOnUse">
      <rect width="4" height="4" fill="transparent"/>
      <line x1="0" y1="0" x2="4" y2="0" stroke="#ffffff" stroke-opacity="0.035" stroke-width="1"/>
    </pattern>
    <pattern id="hatch" width="6" height="6" patternTransform="rotate(45)" patternUnits="userSpaceOnUse">
      <line x1="0" y1="0" x2="0" y2="6" stroke="#ffffff" stroke-opacity="0.05" stroke-width="1"/>
    </pattern>
    
  </defs>

  <rect x="0" y="0" width="1192" height="332" fill="#000000"/>
  <rect x="0" y="0" width="1192" height="332" fill="url(#bgGlow)"/>

    <polygon points="40,24 568,24 584,40 584,138 568,154 40,154 24,138 24,40" fill="url(#panelFill)" stroke="#ffffff" stroke-opacity="0.5" stroke-width="1.2" filter="url(#dropShadow)"/>
    <polygon points="40,24 568,24 584,40 584,138 568,154 40,154 24,138 24,40" fill="none" stroke="#ffffff" stroke-opacity="0.12" stroke-width="6"/>
    <path d="M19,33 L19,19 L33,19" fill="none" stroke="#ffffff" stroke-opacity="0.5" stroke-width="1.2"/><path d="M589,33 L589,19 L575,19" fill="none" stroke="#ffffff" stroke-opacity="0.5" stroke-width="1.2"/><path d="M19,145 L19,159 L33,159" fill="none" stroke="#ffffff" stroke-opacity="0.5" stroke-width="1.2"/><path d="M589,145 L589,159 L575,159" fill="none" stroke="#ffffff" stroke-opacity="0.5" stroke-width="1.2"/><polygon points="82.0,89.0 73.0,104.6 55.0,104.6 46.0,89.0 55.0,73.4 73.0,73.4" fill="none" stroke="#ffffff" stroke-opacity="0.8" stroke-width="1.3"/><circle cx="64" cy="89.0" r="4" fill="#ffffff" fill-opacity="0.85"/><text x="104" y="66" font-family="'Helvetica Neue',Arial,sans-serif" font-size="15" font-weight="700" letter-spacing="1" fill="#ffffff">SERC RESEARCH INTERNSHIP</text><text x="104" y="90" font-family="'Helvetica Neue',Arial,sans-serif" font-size="12" fill="#ffffff" fill-opacity="0.75">Selected as Summer Research Intern at SERC,</text><text x="104" y="107" font-family="'Helvetica Neue',Arial,sans-serif" font-size="12" fill="#ffffff" fill-opacity="0.75">IIIT Hyderabad.</text>
    <polygon points="624,24 1152,24 1168,40 1168,138 1152,154 624,154 608,138 608,40" fill="url(#panelFill)" stroke="#ffffff" stroke-opacity="0.5" stroke-width="1.2" filter="url(#dropShadow)"/>
    <polygon points="624,24 1152,24 1168,40 1168,138 1152,154 624,154 608,138 608,40" fill="none" stroke="#ffffff" stroke-opacity="0.12" stroke-width="6"/>
    <path d="M603,33 L603,19 L617,19" fill="none" stroke="#ffffff" stroke-opacity="0.5" stroke-width="1.2"/><path d="M1173,33 L1173,19 L1159,19" fill="none" stroke="#ffffff" stroke-opacity="0.5" stroke-width="1.2"/><path d="M603,145 L603,159 L617,159" fill="none" stroke="#ffffff" stroke-opacity="0.5" stroke-width="1.2"/><path d="M1173,145 L1173,159 L1159,159" fill="none" stroke="#ffffff" stroke-opacity="0.5" stroke-width="1.2"/><polygon points="666.0,89.0 657.0,104.6 639.0,104.6 630.0,89.0 639.0,73.4 657.0,73.4" fill="none" stroke="#ffffff" stroke-opacity="0.8" stroke-width="1.3"/><circle cx="648" cy="89.0" r="4" fill="#ffffff" fill-opacity="0.85"/><text x="688" y="66" font-family="'Helvetica Neue',Arial,sans-serif" font-size="15" font-weight="700" letter-spacing="1" fill="#ffffff">DOMAIN COORDINATOR</text><text x="688" y="90" font-family="'Helvetica Neue',Arial,sans-serif" font-size="12" fill="#ffffff" fill-opacity="0.75">Led the Embedded Systems and IoT domain for a</text><text x="688" y="107" font-family="'Helvetica Neue',Arial,sans-serif" font-size="12" fill="#ffffff" fill-opacity="0.75">technical body.</text>
    <polygon points="40,178 568,178 584,194 584,292 568,308 40,308 24,292 24,194" fill="url(#panelFill)" stroke="#ffffff" stroke-opacity="0.5" stroke-width="1.2" filter="url(#dropShadow)"/>
    <polygon points="40,178 568,178 584,194 584,292 568,308 40,308 24,292 24,194" fill="none" stroke="#ffffff" stroke-opacity="0.12" stroke-width="6"/>
    <path d="M19,187 L19,173 L33,173" fill="none" stroke="#ffffff" stroke-opacity="0.5" stroke-width="1.2"/><path d="M589,187 L589,173 L575,173" fill="none" stroke="#ffffff" stroke-opacity="0.5" stroke-width="1.2"/><path d="M19,299 L19,313 L33,313" fill="none" stroke="#ffffff" stroke-opacity="0.5" stroke-width="1.2"/><path d="M589,299 L589,313 L575,313" fill="none" stroke="#ffffff" stroke-opacity="0.5" stroke-width="1.2"/><polygon points="82.0,243.0 73.0,258.6 55.0,258.6 46.0,243.0 55.0,227.4 73.0,227.4" fill="none" stroke="#ffffff" stroke-opacity="0.8" stroke-width="1.3"/><circle cx="64" cy="243.0" r="4" fill="#ffffff" fill-opacity="0.85"/><text x="104" y="220" font-family="'Helvetica Neue',Arial,sans-serif" font-size="15" font-weight="700" letter-spacing="1" fill="#ffffff">SHIPPED SIX+ PRODUCTS</text><text x="104" y="244" font-family="'Helvetica Neue',Arial,sans-serif" font-size="12" fill="#ffffff" fill-opacity="0.75">Designed, built and deployed multiple full-</text><text x="104" y="261" font-family="'Helvetica Neue',Arial,sans-serif" font-size="12" fill="#ffffff" fill-opacity="0.75">stack and AI products.</text>
    <polygon points="624,178 1152,178 1168,194 1168,292 1152,308 624,308 608,292 608,194" fill="url(#panelFill)" stroke="#ffffff" stroke-opacity="0.5" stroke-width="1.2" filter="url(#dropShadow)"/>
    <polygon points="624,178 1152,178 1168,194 1168,292 1152,308 624,308 608,292 608,194" fill="none" stroke="#ffffff" stroke-opacity="0.12" stroke-width="6"/>
    <path d="M603,187 L603,173 L617,173" fill="none" stroke="#ffffff" stroke-opacity="0.5" stroke-width="1.2"/><path d="M1173,187 L1173,173 L1159,173" fill="none" stroke="#ffffff" stroke-opacity="0.5" stroke-width="1.2"/><path d="M603,299 L603,313 L617,313" fill="none" stroke="#ffffff" stroke-opacity="0.5" stroke-width="1.2"/><path d="M1173,299 L1173,313 L1159,313" fill="none" stroke="#ffffff" stroke-opacity="0.5" stroke-width="1.2"/><polygon points="666.0,243.0 657.0,258.6 639.0,258.6 630.0,243.0 639.0,227.4 657.0,227.4" fill="none" stroke="#ffffff" stroke-opacity="0.8" stroke-width="1.3"/><circle cx="648" cy="243.0" r="4" fill="#ffffff" fill-opacity="0.85"/><text x="688" y="220" font-family="'Helvetica Neue',Arial,sans-serif" font-size="15" font-weight="700" letter-spacing="1" fill="#ffffff">OPEN SOURCE CONTRIBUTOR</text><text x="688" y="244" font-family="'Helvetica Neue',Arial,sans-serif" font-size="12" fill="#ffffff" fill-opacity="0.75">Active contributor across personal and</text><text x="688" y="261" font-family="'Helvetica Neue',Arial,sans-serif" font-size="12" fill="#ffffff" fill-opacity="0.75">collaborative repositories.</text>
  <rect x="0" y="0" width="1192" height="332" fill="url(#scanlines)"/>
</svg>