<svg width="1200" height="380" viewBox="0 0 1200 380" xmlns="http://www.w3.org/2000/svg">

  <defs>
    <filter id="softGlow" x="-60%" y="-60%" width="220%" height="220%">
      <feGaussianBlur stdDeviation="3.2" result="blur"/>
      <feMerge>
        <feMergeNode in="blur"/>
        <feMergeNode in="blur"/>
        <feMergeNode in="SourceGraphic"/>
      </feMerge>
    </filter>
    <filter id="hardGlow" x="-80%" y="-80%" width="260%" height="260%">
      <feGaussianBlur stdDeviation="6" result="blur"/>
      <feMerge>
        <feMergeNode in="blur"/>
        <feMergeNode in="SourceGraphic"/>
      </feMerge>
    </filter>
    <filter id="dropShadow" x="-40%" y="-40%" width="180%" height="180%">
      <feDropShadow dx="0" dy="6" stdDeviation="10" flood-color="#000000" flood-opacity="0.85"/>
    </filter>
    <linearGradient id="bevelTop" x1="0" y1="0" x2="0" y2="1">
      <stop offset="0" stop-color="#ffffff" stop-opacity="0.55"/>
      <stop offset="1" stop-color="#ffffff" stop-opacity="0.02"/>
    </linearGradient>
    <linearGradient id="panelFill" x1="0" y1="0" x2="0" y2="1">
      <stop offset="0" stop-color="#141414" stop-opacity="0.95"/>
      <stop offset="1" stop-color="#000000" stop-opacity="0.98"/>
    </linearGradient>
    <radialGradient id="bgGlow" cx="50%" cy="0%" r="90%">
      <stop offset="0%" stop-color="#ffffff" stop-opacity="0.07"/>
      <stop offset="55%" stop-color="#ffffff" stop-opacity="0.02"/>
      <stop offset="100%" stop-color="#000000" stop-opacity="0"/>
    </radialGradient>
    <linearGradient id="fadeEdge" x1="0" y1="0" x2="1" y2="0">
      <stop offset="0" stop-color="#ffffff" stop-opacity="0"/>
      <stop offset="0.5" stop-color="#ffffff" stop-opacity="0.9"/>
      <stop offset="1" stop-color="#ffffff" stop-opacity="0"/>
    </linearGradient>
    <pattern id="scanlines" width="4" height="4" patternUnits="userSpaceOnUse">
      <rect width="4" height="4" fill="transparent"/>
      <line x1="0" y1="0" x2="4" y2="0" stroke="#ffffff" stroke-opacity="0.035" stroke-width="1"/>
    </pattern>
    <pattern id="hatch" width="6" height="6" patternTransform="rotate(45)" patternUnits="userSpaceOnUse">
      <line x1="0" y1="0" x2="0" y2="6" stroke="#ffffff" stroke-opacity="0.05" stroke-width="1"/>
    </pattern>
    
  </defs>

  <rect x="0" y="0" width="1200" height="380" fill="#000000"/>
  <rect x="0" y="0" width="1200" height="380" fill="url(#bgGlow)"/>

    <polygon points="28,4 1172,4 1196,28 1196,352 1172,376 28,376 4,352 4,28" fill="url(#panelFill)" stroke="#ffffff" stroke-opacity="0.5" stroke-width="1.2" filter="url(#dropShadow)"/>
    <polygon points="28,4 1172,4 1196,28 1196,352 1172,376 28,376 4,352 4,28" fill="none" stroke="#ffffff" stroke-opacity="0.12" stroke-width="6"/>
    <path d="M-6,20 L-6,-6 L20,-6" fill="none" stroke="#ffffff" stroke-opacity="0.9" stroke-width="1.6"/><path d="M1206,20 L1206,-6 L1180,-6" fill="none" stroke="#ffffff" stroke-opacity="0.9" stroke-width="1.6"/><path d="M-6,360 L-6,386 L20,386" fill="none" stroke="#ffffff" stroke-opacity="0.9" stroke-width="1.6"/><path d="M1206,360 L1206,386 L1180,386" fill="none" stroke="#ffffff" stroke-opacity="0.9" stroke-width="1.6"/><text x="36" y="34" font-family="'JetBrains Mono','Fira Code','Courier New',monospace" font-size="12" fill="#ffffff" fill-opacity="0.65" letter-spacing="2" text-anchor="start">// SYSTEM STATUS: ONLINE</text><text x="1164" y="34" font-family="'JetBrains Mono','Fira Code','Courier New',monospace" font-size="12" fill="#ffffff" fill-opacity="0.65" letter-spacing="2" text-anchor="end">ROOT ACCESS GRANTED //</text><line x1="36" y1="46" x2="1164" y2="46" stroke="#ffffff" stroke-opacity="0.18" stroke-width="1"/>
    <polygon points="46,66 356,66 366,76 366,152 356,162 46,162 36,152 36,76" fill="url(#panelFill)" stroke="#ffffff" stroke-opacity="0.4" stroke-width="1.2" filter="url(#dropShadow)"/>
    <polygon points="46,66 356,66 366,76 366,152 356,162 46,162 36,152 36,76" fill="none" stroke="#ffffff" stroke-opacity="0.12" stroke-width="6"/>
    <text x="52" y="94" font-family="'JetBrains Mono','Fira Code','Courier New',monospace" font-size="13" fill="#ffffff" fill-opacity="0.85">shelvaaathithyan@github:~$</text><text x="52" y="118" font-family="'JetBrains Mono','Fira Code','Courier New',monospace" font-size="14" fill="#ffffff" filter="url(#softGlow)">whoami</text><rect x="118" y="107" width="9" height="15" fill="#ffffff" fill-opacity="0.9"/><text x="52" y="142" font-family="'JetBrains Mono','Fira Code','Courier New',monospace" font-size="12" fill="#ffffff" fill-opacity="0.6">&gt; AI Engineer / Full-Stack / Embedded Systems</text><text x="600.0" y="176" font-family="'Helvetica Neue',Arial,sans-serif" font-size="54" font-weight="700" letter-spacing="6" fill="#ffffff" text-anchor="middle" filter="url(#hardGlow)">SHELVAAATHITHYAN VK</text><text x="600.0" y="176" font-family="'Helvetica Neue',Arial,sans-serif" font-size="54" font-weight="700" letter-spacing="6" fill="#ffffff" text-anchor="middle" fill-opacity="0.9">SHELVAAATHITHYAN VK</text><line x1="340.0" y1="196" x2="860.0" y2="196" stroke="url(#fadeEdge)" stroke-width="1.5"/><rect x="208.39999999999998" y="222" width="100.1" height="30" rx="15" fill="none" stroke="#ffffff" stroke-opacity="0.55" stroke-width="1"/><text x="258.45" y="242" font-family="'JetBrains Mono','Fira Code','Courier New',monospace" font-size="11.5" letter-spacing="1.5" fill="#ffffff" fill-opacity="0.85" text-anchor="middle">AI ENGINEER</text><rect x="322.5" y="222" width="164.0" height="30" rx="15" fill="none" stroke="#ffffff" stroke-opacity="0.55" stroke-width="1"/><text x="404.5" y="242" font-family="'JetBrains Mono','Fira Code','Courier New',monospace" font-size="11.5" letter-spacing="1.5" fill="#ffffff" fill-opacity="0.85" text-anchor="middle">FULL STACK DEVELOPER</text><rect x="500.5" y="222" width="135.6" height="30" rx="15" fill="none" stroke="#ffffff" stroke-opacity="0.55" stroke-width="1"/><text x="568.3" y="242" font-family="'JetBrains Mono','Fira Code','Courier New',monospace" font-size="11.5" letter-spacing="1.5" fill="#ffffff" fill-opacity="0.85" text-anchor="middle">EMBEDDED SYSTEMS</text><rect x="650.1" y="222" width="341.5" height="30" rx="15" fill="none" stroke="#ffffff" stroke-opacity="0.55" stroke-width="1"/><text x="820.85" y="242" font-family="'JetBrains Mono','Fira Code','Courier New',monospace" font-size="11.5" letter-spacing="1.5" fill="#ffffff" fill-opacity="0.85" text-anchor="middle">SUMMER RESEARCH INTERN · SERC, IIIT HYDERABAD</text>
    <polygon points="390.0,272 810.0,272 820.0,282 820.0,346 810.0,356 390.0,356 380.0,346 380.0,282" fill="url(#panelFill)" stroke="#ffffff" stroke-opacity="0.4" stroke-width="1.2" filter="url(#dropShadow)"/>
    <polygon points="390.0,272 810.0,272 820.0,282 820.0,346 810.0,356 390.0,356 380.0,346 380.0,282" fill="none" stroke="#ffffff" stroke-opacity="0.12" stroke-width="6"/>
    <text x="398.0" y="294" font-family="'JetBrains Mono','Fira Code','Courier New',monospace" font-size="11.5" fill="#ffffff" fill-opacity="0.82">while (alive) {</text><text x="398.0" y="307" font-family="'JetBrains Mono','Fira Code','Courier New',monospace" font-size="11.5" fill="#ffffff" fill-opacity="0.82">  learn();</text><text x="398.0" y="320" font-family="'JetBrains Mono','Fira Code','Courier New',monospace" font-size="11.5" fill="#ffffff" fill-opacity="0.82">  build();</text><text x="398.0" y="333" font-family="'JetBrains Mono','Fira Code','Courier New',monospace" font-size="11.5" fill="#ffffff" fill-opacity="0.82">  innovate();</text><text x="398.0" y="346" font-family="'JetBrains Mono','Fira Code','Courier New',monospace" font-size="11.5" fill="#ffffff" fill-opacity="0.82">}</text>
  <rect x="0" y="0" width="1200" height="380" fill="url(#scanlines)"/>
</svg>