<svg width="1236" height="492" viewBox="0 0 1236 492" xmlns="http://www.w3.org/2000/svg">

  <defs>
    <filter id="softGlow" x="-60%" y="-60%" width="220%" height="220%">
      <feGaussianBlur stdDeviation="3.2" result="blur"/>
      <feMerge>
        <feMergeNode in="blur"/>
        <feMergeNode in="blur"/>
        <feMergeNode in="SourceGraphic"/>
      </feMerge>
    </filter>
    <filter id="hardGlow" x="-80%" y="-80%" width="260%" height="260%">
      <feGaussianBlur stdDeviation="6" result="blur"/>
      <feMerge>
        <feMergeNode in="blur"/>
        <feMergeNode in="SourceGraphic"/>
      </feMerge>
    </filter>
    <filter id="dropShadow" x="-40%" y="-40%" width="180%" height="180%">
      <feDropShadow dx="0" dy="6" stdDeviation="10" flood-color="#000000" flood-opacity="0.85"/>
    </filter>
    <linearGradient id="bevelTop" x1="0" y1="0" x2="0" y2="1">
      <stop offset="0" stop-color="#ffffff" stop-opacity="0.55"/>
      <stop offset="1" stop-color="#ffffff" stop-opacity="0.02"/>
    </linearGradient>
    <linearGradient id="panelFill" x1="0" y1="0" x2="0" y2="1">
      <stop offset="0" stop-color="#141414" stop-opacity="0.95"/>
      <stop offset="1" stop-color="#000000" stop-opacity="0.98"/>
    </linearGradient>
    <radialGradient id="bgGlow" cx="50%" cy="0%" r="90%">
      <stop offset="0%" stop-color="#ffffff" stop-opacity="0.07"/>
      <stop offset="55%" stop-color="#ffffff" stop-opacity="0.02"/>
      <stop offset="100%" stop-color="#000000" stop-opacity="0"/>
    </radialGradient>
    <linearGradient id="fadeEdge" x1="0" y1="0" x2="1" y2="0">
      <stop offset="0" stop-color="#ffffff" stop-opacity="0"/>
      <stop offset="0.5" stop-color="#ffffff" stop-opacity="0.9"/>
      <stop offset="1" stop-color="#ffffff" stop-opacity="0"/>
    </linearGradient>
    <pattern id="scanlines" width="4" height="4" patternUnits="userSpaceOnUse">
      <rect width="4" height="4" fill="transparent"/>
      <line x1="0" y1="0" x2="4" y2="0" stroke="#ffffff" stroke-opacity="0.035" stroke-width="1"/>
    </pattern>
    <pattern id="hatch" width="6" height="6" patternTransform="rotate(45)" patternUnits="userSpaceOnUse">
      <line x1="0" y1="0" x2="0" y2="6" stroke="#ffffff" stroke-opacity="0.05" stroke-width="1"/>
    </pattern>
    
  </defs>

  <rect x="0" y="0" width="1236" height="492" fill="#000000"/>
  <rect x="0" y="0" width="1236" height="492" fill="url(#bgGlow)"/>

    <polygon points="40,24 388,24 404,40 404,218 388,234 40,234 24,218 24,40" fill="url(#panelFill)" stroke="#ffffff" stroke-opacity="0.5" stroke-width="1.2" filter="url(#dropShadow)"/>
    <polygon points="40,24 388,24 404,40 404,218 388,234 40,234 24,218 24,40" fill="none" stroke="#ffffff" stroke-opacity="0.12" stroke-width="6"/>
    <path d="M19,33 L19,19 L33,19" fill="none" stroke="#ffffff" stroke-opacity="0.55" stroke-width="1.2"/><path d="M409,33 L409,19 L395,19" fill="none" stroke="#ffffff" stroke-opacity="0.55" stroke-width="1.2"/><path d="M19,225 L19,239 L33,239" fill="none" stroke="#ffffff" stroke-opacity="0.55" stroke-width="1.2"/><path d="M409,225 L409,239 L395,239" fill="none" stroke="#ffffff" stroke-opacity="0.55" stroke-width="1.2"/><rect x="46" y="46" width="22" height="22" fill="none" stroke="#ffffff" stroke-opacity="0.8" stroke-width="1.3" transform="rotate(45 57 57)"/><text x="82" y="62" font-family="'Helvetica Neue',Arial,sans-serif" font-size="17" font-weight="700" letter-spacing="1.5" fill="#ffffff">PORTFOLIO V2</text><line x1="46" y1="82" x2="382" y2="82" stroke="#ffffff" stroke-opacity="0.15" stroke-width="1"/><text x="46" y="106" font-family="'Helvetica Neue',Arial,sans-serif" font-size="12.5" fill="#ffffff" fill-opacity="0.75">Personal portfolio rebuilt as an</text><text x="46" y="124" font-family="'Helvetica Neue',Arial,sans-serif" font-size="12.5" fill="#ffffff" fill-opacity="0.75">interactive 3D experience.</text><text x="46" y="178" font-family="'JetBrains Mono','Fira Code','Courier New',monospace" font-size="11" letter-spacing="0.5" fill="#ffffff" fill-opacity="0.55">React · Three.js · GSAP</text><polygon points="53,196 135,196 142,203 142,217 135,224 53,224 46,217 46,203" fill="none" stroke="#ffffff" stroke-opacity="0.6" stroke-width="1"/><text x="94.0" y="214" font-family="'JetBrains Mono','Fira Code','Courier New',monospace" font-size="10.5" letter-spacing="1" fill="#ffffff" text-anchor="middle">REPOSITORY</text><polygon points="161,196 243,196 250,203 250,217 243,224 161,224 154,217 154,203" fill="#ffffff" fill-opacity="0.08" stroke="#ffffff" stroke-opacity="0.6" stroke-width="1"/><text x="202.0" y="214" font-family="'JetBrains Mono','Fira Code','Courier New',monospace" font-size="10.5" letter-spacing="1" fill="#ffffff" text-anchor="middle">LIVE DEMO</text>
    <polygon points="444,24 792,24 808,40 808,218 792,234 444,234 428,218 428,40" fill="url(#panelFill)" stroke="#ffffff" stroke-opacity="0.5" stroke-width="1.2" filter="url(#dropShadow)"/>
    <polygon points="444,24 792,24 808,40 808,218 792,234 444,234 428,218 428,40" fill="none" stroke="#ffffff" stroke-opacity="0.12" stroke-width="6"/>
    <path d="M423,33 L423,19 L437,19" fill="none" stroke="#ffffff" stroke-opacity="0.55" stroke-width="1.2"/><path d="M813,33 L813,19 L799,19" fill="none" stroke="#ffffff" stroke-opacity="0.55" stroke-width="1.2"/><path d="M423,225 L423,239 L437,239" fill="none" stroke="#ffffff" stroke-opacity="0.55" stroke-width="1.2"/><path d="M813,225 L813,239 L799,239" fill="none" stroke="#ffffff" stroke-opacity="0.55" stroke-width="1.2"/><rect x="450" y="46" width="22" height="22" fill="none" stroke="#ffffff" stroke-opacity="0.8" stroke-width="1.3" transform="rotate(45 461 57)"/><text x="486" y="62" font-family="'Helvetica Neue',Arial,sans-serif" font-size="17" font-weight="700" letter-spacing="1.5" fill="#ffffff">VISIONBITE</text><line x1="450" y1="82" x2="786" y2="82" stroke="#ffffff" stroke-opacity="0.15" stroke-width="1"/><text x="450" y="106" font-family="'Helvetica Neue',Arial,sans-serif" font-size="12.5" fill="#ffffff" fill-opacity="0.75">AI-assisted food discovery and nutrition</text><text x="450" y="124" font-family="'Helvetica Neue',Arial,sans-serif" font-size="12.5" fill="#ffffff" fill-opacity="0.75">insight app.</text><text x="450" y="178" font-family="'JetBrains Mono','Fira Code','Courier New',monospace" font-size="11" letter-spacing="0.5" fill="#ffffff" fill-opacity="0.55">Python · ML · React</text><polygon points="457,196 539,196 546,203 546,217 539,224 457,224 450,217 450,203" fill="none" stroke="#ffffff" stroke-opacity="0.6" stroke-width="1"/><text x="498.0" y="214" font-family="'JetBrains Mono','Fira Code','Courier New',monospace" font-size="10.5" letter-spacing="1" fill="#ffffff" text-anchor="middle">REPOSITORY</text><polygon points="565,196 647,196 654,203 654,217 647,224 565,224 558,217 558,203" fill="#ffffff" fill-opacity="0.08" stroke="#ffffff" stroke-opacity="0.6" stroke-width="1"/><text x="606.0" y="214" font-family="'JetBrains Mono','Fira Code','Courier New',monospace" font-size="10.5" letter-spacing="1" fill="#ffffff" text-anchor="middle">LIVE DEMO</text>
    <polygon points="848,24 1196,24 1212,40 1212,218 1196,234 848,234 832,218 832,40" fill="url(#panelFill)" stroke="#ffffff" stroke-opacity="0.5" stroke-width="1.2" filter="url(#dropShadow)"/>
    <polygon points="848,24 1196,24 1212,40 1212,218 1196,234 848,234 832,218 832,40" fill="none" stroke="#ffffff" stroke-opacity="0.12" stroke-width="6"/>
    <path d="M827,33 L827,19 L841,19" fill="none" stroke="#ffffff" stroke-opacity="0.55" stroke-width="1.2"/><path d="M1217,33 L1217,19 L1203,19" fill="none" stroke="#ffffff" stroke-opacity="0.55" stroke-width="1.2"/><path d="M827,225 L827,239 L841,239" fill="none" stroke="#ffffff" stroke-opacity="0.55" stroke-width="1.2"/><path d="M1217,225 L1217,239 L1203,239" fill="none" stroke="#ffffff" stroke-opacity="0.55" stroke-width="1.2"/><rect x="854" y="46" width="22" height="22" fill="none" stroke="#ffffff" stroke-opacity="0.8" stroke-width="1.3" transform="rotate(45 865 57)"/><text x="890" y="62" font-family="'Helvetica Neue',Arial,sans-serif" font-size="17" font-weight="700" letter-spacing="1.5" fill="#ffffff">REPORA</text><line x1="854" y1="82" x2="1190" y2="82" stroke="#ffffff" stroke-opacity="0.15" stroke-width="1"/><text x="854" y="106" font-family="'Helvetica Neue',Arial,sans-serif" font-size="12.5" fill="#ffffff" fill-opacity="0.75">Automated reporting and analytics</text><text x="854" y="124" font-family="'Helvetica Neue',Arial,sans-serif" font-size="12.5" fill="#ffffff" fill-opacity="0.75">dashboard tool.</text><text x="854" y="178" font-family="'JetBrains Mono','Fira Code','Courier New',monospace" font-size="11" letter-spacing="0.5" fill="#ffffff" fill-opacity="0.55">Node · Express · MongoDB</text><polygon points="861,196 943,196 950,203 950,217 943,224 861,224 854,217 854,203" fill="none" stroke="#ffffff" stroke-opacity="0.6" stroke-width="1"/><text x="902.0" y="214" font-family="'JetBrains Mono','Fira Code','Courier New',monospace" font-size="10.5" letter-spacing="1" fill="#ffffff" text-anchor="middle">REPOSITORY</text><polygon points="969,196 1051,196 1058,203 1058,217 1051,224 969,224 962,217 962,203" fill="#ffffff" fill-opacity="0.08" stroke="#ffffff" stroke-opacity="0.6" stroke-width="1"/><text x="1010.0" y="214" font-family="'JetBrains Mono','Fira Code','Courier New',monospace" font-size="10.5" letter-spacing="1" fill="#ffffff" text-anchor="middle">LIVE DEMO</text>
    <polygon points="40,258 388,258 404,274 404,452 388,468 40,468 24,452 24,274" fill="url(#panelFill)" stroke="#ffffff" stroke-opacity="0.5" stroke-width="1.2" filter="url(#dropShadow)"/>
    <polygon points="40,258 388,258 404,274 404,452 388,468 40,468 24,452 24,274" fill="none" stroke="#ffffff" stroke-opacity="0.12" stroke-width="6"/>
    <path d="M19,267 L19,253 L33,253" fill="none" stroke="#ffffff" stroke-opacity="0.55" stroke-width="1.2"/><path d="M409,267 L409,253 L395,253" fill="none" stroke="#ffffff" stroke-opacity="0.55" stroke-width="1.2"/><path d="M19,459 L19,473 L33,473" fill="none" stroke="#ffffff" stroke-opacity="0.55" stroke-width="1.2"/><path d="M409,459 L409,473 L395,473" fill="none" stroke="#ffffff" stroke-opacity="0.55" stroke-width="1.2"/><rect x="46" y="280" width="22" height="22" fill="none" stroke="#ffffff" stroke-opacity="0.8" stroke-width="1.3" transform="rotate(45 57 291)"/><text x="82" y="296" font-family="'Helvetica Neue',Arial,sans-serif" font-size="17" font-weight="700" letter-spacing="1.5" fill="#ffffff">NEPTUNE</text><line x1="46" y1="316" x2="382" y2="316" stroke="#ffffff" stroke-opacity="0.15" stroke-width="1"/><text x="46" y="340" font-family="'Helvetica Neue',Arial,sans-serif" font-size="12.5" fill="#ffffff" fill-opacity="0.75">Embedded + IoT system for real-time</text><text x="46" y="358" font-family="'Helvetica Neue',Arial,sans-serif" font-size="12.5" fill="#ffffff" fill-opacity="0.75">environment sensing.</text><text x="46" y="412" font-family="'JetBrains Mono','Fira Code','Courier New',monospace" font-size="11" letter-spacing="0.5" fill="#ffffff" fill-opacity="0.55">Arduino · ESP8266 · C++</text><polygon points="53,430 135,430 142,437 142,451 135,458 53,458 46,451 46,437" fill="none" stroke="#ffffff" stroke-opacity="0.6" stroke-width="1"/><text x="94.0" y="448" font-family="'JetBrains Mono','Fira Code','Courier New',monospace" font-size="10.5" letter-spacing="1" fill="#ffffff" text-anchor="middle">REPOSITORY</text><polygon points="161,430 243,430 250,437 250,451 243,458 161,458 154,451 154,437" fill="#ffffff" fill-opacity="0.08" stroke="#ffffff" stroke-opacity="0.6" stroke-width="1"/><text x="202.0" y="448" font-family="'JetBrains Mono','Fira Code','Courier New',monospace" font-size="10.5" letter-spacing="1" fill="#ffffff" text-anchor="middle">LIVE DEMO</text>
    <polygon points="444,258 792,258 808,274 808,452 792,468 444,468 428,452 428,274" fill="url(#panelFill)" stroke="#ffffff" stroke-opacity="0.5" stroke-width="1.2" filter="url(#dropShadow)"/>
    <polygon points="444,258 792,258 808,274 808,452 792,468 444,468 428,452 428,274" fill="none" stroke="#ffffff" stroke-opacity="0.12" stroke-width="6"/>
    <path d="M423,267 L423,253 L437,253" fill="none" stroke="#ffffff" stroke-opacity="0.55" stroke-width="1.2"/><path d="M813,267 L813,253 L799,253" fill="none" stroke="#ffffff" stroke-opacity="0.55" stroke-width="1.2"/><path d="M423,459 L423,473 L437,473" fill="none" stroke="#ffffff" stroke-opacity="0.55" stroke-width="1.2"/><path d="M813,459 L813,473 L799,473" fill="none" stroke="#ffffff" stroke-opacity="0.55" stroke-width="1.2"/><rect x="450" y="280" width="22" height="22" fill="none" stroke="#ffffff" stroke-opacity="0.8" stroke-width="1.3" transform="rotate(45 461 291)"/><text x="486" y="296" font-family="'Helvetica Neue',Arial,sans-serif" font-size="17" font-weight="700" letter-spacing="1.5" fill="#ffffff">RAHA CREATIONS</text><line x1="450" y1="316" x2="786" y2="316" stroke="#ffffff" stroke-opacity="0.15" stroke-width="1"/><text x="450" y="340" font-family="'Helvetica Neue',Arial,sans-serif" font-size="12.5" fill="#ffffff" fill-opacity="0.75">Creative studio site with immersive visual</text><text x="450" y="358" font-family="'Helvetica Neue',Arial,sans-serif" font-size="12.5" fill="#ffffff" fill-opacity="0.75">storytelling.</text><text x="450" y="412" font-family="'JetBrains Mono','Fira Code','Courier New',monospace" font-size="11" letter-spacing="0.5" fill="#ffffff" fill-opacity="0.55">React · Three.js · CSS</text><polygon points="457,430 539,430 546,437 546,451 539,458 457,458 450,451 450,437" fill="none" stroke="#ffffff" stroke-opacity="0.6" stroke-width="1"/><text x="498.0" y="448" font-family="'JetBrains Mono','Fira Code','Courier New',monospace" font-size="10.5" letter-spacing="1" fill="#ffffff" text-anchor="middle">REPOSITORY</text><polygon points="565,430 647,430 654,437 654,451 647,458 565,458 558,451 558,437" fill="#ffffff" fill-opacity="0.08" stroke="#ffffff" stroke-opacity="0.6" stroke-width="1"/><text x="606.0" y="448" font-family="'JetBrains Mono','Fira Code','Courier New',monospace" font-size="10.5" letter-spacing="1" fill="#ffffff" text-anchor="middle">LIVE DEMO</text>
    <polygon points="848,258 1196,258 1212,274 1212,452 1196,468 848,468 832,452 832,274" fill="url(#panelFill)" stroke="#ffffff" stroke-opacity="0.5" stroke-width="1.2" filter="url(#dropShadow)"/>
    <polygon points="848,258 1196,258 1212,274 1212,452 1196,468 848,468 832,452 832,274" fill="none" stroke="#ffffff" stroke-opacity="0.12" stroke-width="6"/>
    <path d="M827,267 L827,253 L841,253" fill="none" stroke="#ffffff" stroke-opacity="0.55" stroke-width="1.2"/><path d="M1217,267 L1217,253 L1203,253" fill="none" stroke="#ffffff" stroke-opacity="0.55" stroke-width="1.2"/><path d="M827,459 L827,473 L841,473" fill="none" stroke="#ffffff" stroke-opacity="0.55" stroke-width="1.2"/><path d="M1217,459 L1217,473 L1203,473" fill="none" stroke="#ffffff" stroke-opacity="0.55" stroke-width="1.2"/><rect x="854" y="280" width="22" height="22" fill="none" stroke="#ffffff" stroke-opacity="0.8" stroke-width="1.3" transform="rotate(45 865 291)"/><text x="890" y="296" font-family="'Helvetica Neue',Arial,sans-serif" font-size="17" font-weight="700" letter-spacing="1.5" fill="#ffffff">APARTIBOT</text><line x1="854" y1="316" x2="1190" y2="316" stroke="#ffffff" stroke-opacity="0.15" stroke-width="1"/><text x="854" y="340" font-family="'Helvetica Neue',Arial,sans-serif" font-size="12.5" fill="#ffffff" fill-opacity="0.75">Conversational assistant for apartment</text><text x="854" y="358" font-family="'Helvetica Neue',Arial,sans-serif" font-size="12.5" fill="#ffffff" fill-opacity="0.75">search and queries.</text><text x="854" y="412" font-family="'JetBrains Mono','Fira Code','Courier New',monospace" font-size="11" letter-spacing="0.5" fill="#ffffff" fill-opacity="0.55">Python · RAG · Gemini</text><polygon points="861,430 943,430 950,437 950,451 943,458 861,458 854,451 854,437" fill="none" stroke="#ffffff" stroke-opacity="0.6" stroke-width="1"/><text x="902.0" y="448" font-family="'JetBrains Mono','Fira Code','Courier New',monospace" font-size="10.5" letter-spacing="1" fill="#ffffff" text-anchor="middle">REPOSITORY</text><polygon points="969,430 1051,430 1058,437 1058,451 1051,458 969,458 962,451 962,437" fill="#ffffff" fill-opacity="0.08" stroke="#ffffff" stroke-opacity="0.6" stroke-width="1"/><text x="1010.0" y="448" font-family="'JetBrains Mono','Fira Code','Courier New',monospace" font-size="10.5" letter-spacing="1" fill="#ffffff" text-anchor="middle">LIVE DEMO</text>
  <rect x="0" y="0" width="1236" height="492" fill="url(#scanlines)"/>
</svg>