<svg width="1200" height="514" viewBox="0 0 1200 514" xmlns="http://www.w3.org/2000/svg">

  <defs>
    <filter id="softGlow" x="-60%" y="-60%" width="220%" height="220%">
      <feGaussianBlur stdDeviation="3.2" result="blur"/>
      <feMerge>
        <feMergeNode in="blur"/>
        <feMergeNode in="blur"/>
        <feMergeNode in="SourceGraphic"/>
      </feMerge>
    </filter>
    <filter id="hardGlow" x="-80%" y="-80%" width="260%" height="260%">
      <feGaussianBlur stdDeviation="6" result="blur"/>
      <feMerge>
        <feMergeNode in="blur"/>
        <feMergeNode in="SourceGraphic"/>
      </feMerge>
    </filter>
    <filter id="dropShadow" x="-40%" y="-40%" width="180%" height="180%">
      <feDropShadow dx="0" dy="6" stdDeviation="10" flood-color="#000000" flood-opacity="0.85"/>
    </filter>
    <linearGradient id="bevelTop" x1="0" y1="0" x2="0" y2="1">
      <stop offset="0" stop-color="#ffffff" stop-opacity="0.55"/>
      <stop offset="1" stop-color="#ffffff" stop-opacity="0.02"/>
    </linearGradient>
    <linearGradient id="panelFill" x1="0" y1="0" x2="0" y2="1">
      <stop offset="0" stop-color="#141414" stop-opacity="0.95"/>
      <stop offset="1" stop-color="#000000" stop-opacity="0.98"/>
    </linearGradient>
    <radialGradient id="bgGlow" cx="50%" cy="0%" r="90%">
      <stop offset="0%" stop-color="#ffffff" stop-opacity="0.07"/>
      <stop offset="55%" stop-color="#ffffff" stop-opacity="0.02"/>
      <stop offset="100%" stop-color="#000000" stop-opacity="0"/>
    </radialGradient>
    <linearGradient id="fadeEdge" x1="0" y1="0" x2="1" y2="0">
      <stop offset="0" stop-color="#ffffff" stop-opacity="0"/>
      <stop offset="0.5" stop-color="#ffffff" stop-opacity="0.9"/>
      <stop offset="1" stop-color="#ffffff" stop-opacity="0"/>
    </linearGradient>
    <pattern id="scanlines" width="4" height="4" patternUnits="userSpaceOnUse">
      <rect width="4" height="4" fill="transparent"/>
      <line x1="0" y1="0" x2="4" y2="0" stroke="#ffffff" stroke-opacity="0.035" stroke-width="1"/>
    </pattern>
    <pattern id="hatch" width="6" height="6" patternTransform="rotate(45)" patternUnits="userSpaceOnUse">
      <line x1="0" y1="0" x2="0" y2="6" stroke="#ffffff" stroke-opacity="0.05" stroke-width="1"/>
    </pattern>
    
  </defs>

  <rect x="0" y="0" width="1200" height="514" fill="#000000"/>
  <rect x="0" y="0" width="1200" height="514" fill="url(#bgGlow)"/>

    <polygon points="26,4 1174,4 1196,26 1196,488 1174,510 26,510 4,488 4,26" fill="url(#panelFill)" stroke="#ffffff" stroke-opacity="0.5" stroke-width="1.2" filter="url(#dropShadow)"/>
    <polygon points="26,4 1174,4 1196,26 1196,488 1174,510 26,510 4,488 4,26" fill="none" stroke="#ffffff" stroke-opacity="0.12" stroke-width="6"/>
    <path d="M-4,18 L-4,-4 L18,-4" fill="none" stroke="#ffffff" stroke-opacity="0.9" stroke-width="1.6"/><path d="M1204,18 L1204,-4 L1182,-4" fill="none" stroke="#ffffff" stroke-opacity="0.9" stroke-width="1.6"/><path d="M-4,496 L-4,518 L18,518" fill="none" stroke="#ffffff" stroke-opacity="0.9" stroke-width="1.6"/><path d="M1204,496 L1204,518 L1182,518" fill="none" stroke="#ffffff" stroke-opacity="0.9" stroke-width="1.6"/><text x="40" y="40" font-family="'JetBrains Mono','Fira Code','Courier New',monospace" font-size="13" fill="#ffffff" fill-opacity="0.65" letter-spacing="2" text-anchor="start">// TECH ARSENAL</text><line x1="40" y1="52" x2="1160" y2="52" stroke="#ffffff" stroke-opacity="0.16" stroke-width="1"/><text x="40" y="92" font-family="'JetBrains Mono','Fira Code','Courier New',monospace" font-size="12.5" letter-spacing="2" fill="#ffffff" fill-opacity="0.7">LANGUAGES</text><polygon points="238,78 293.6,78 301.6,86 301.6,100 293.6,108 238,108 230,100 230,86" fill="#0a0a0a" stroke="#ffffff" stroke-opacity="0.55" stroke-width="1"/><text x="265.8" y="98" font-family="'Helvetica Neue',Arial,sans-serif" font-size="12.5" fill="#ffffff" fill-opacity="0.9" text-anchor="middle">Python</text><polygon points="323.6,78 364.0,78 372.0,86 372.0,100 364.0,108 323.6,108 315.6,100 315.6,86" fill="#0a0a0a" stroke="#ffffff" stroke-opacity="0.55" stroke-width="1"/><text x="343.8" y="98" font-family="'Helvetica Neue',Arial,sans-serif" font-size="12.5" fill="#ffffff" fill-opacity="0.9" text-anchor="middle">Java</text><polygon points="394.0,78 480.0,78 488.0,86 488.0,100 480.0,108 394.0,108 386.0,100 386.0,86" fill="#0a0a0a" stroke="#ffffff" stroke-opacity="0.55" stroke-width="1"/><text x="437.0" y="98" font-family="'Helvetica Neue',Arial,sans-serif" font-size="12.5" fill="#ffffff" fill-opacity="0.9" text-anchor="middle">TypeScript</text><polygon points="510.0,78 596.0,78 604.0,86 604.0,100 596.0,108 510.0,108 502.0,100 502.0,86" fill="#0a0a0a" stroke="#ffffff" stroke-opacity="0.55" stroke-width="1"/><text x="553.0" y="98" font-family="'Helvetica Neue',Arial,sans-serif" font-size="12.5" fill="#ffffff" fill-opacity="0.9" text-anchor="middle">JavaScript</text><text x="40" y="166" font-family="'JetBrains Mono','Fira Code','Courier New',monospace" font-size="12.5" letter-spacing="2" fill="#ffffff" fill-opacity="0.7">FRONTEND</text><polygon points="238,152 286.0,152 294.0,160 294.0,174 286.0,182 238,182 230,174 230,160" fill="#0a0a0a" stroke="#ffffff" stroke-opacity="0.55" stroke-width="1"/><text x="262.0" y="172" font-family="'Helvetica Neue',Arial,sans-serif" font-size="12.5" fill="#ffffff" fill-opacity="0.9" text-anchor="middle">React</text><polygon points="316.0,152 386.8,152 394.8,160 394.8,174 386.8,182 316.0,182 308.0,174 308.0,160" fill="#0a0a0a" stroke="#ffffff" stroke-opacity="0.55" stroke-width="1"/><text x="351.4" y="172" font-family="'Helvetica Neue',Arial,sans-serif" font-size="12.5" fill="#ffffff" fill-opacity="0.9" text-anchor="middle">Three.js</text><polygon points="416.8,152 457.2,152 465.2,160 465.2,174 457.2,182 416.8,182 408.8,174 408.8,160" fill="#0a0a0a" stroke="#ffffff" stroke-opacity="0.55" stroke-width="1"/><text x="437.0" y="172" font-family="'Helvetica Neue',Arial,sans-serif" font-size="12.5" fill="#ffffff" fill-opacity="0.9" text-anchor="middle">GSAP</text><polygon points="487.20000000000005,152 527.6,152 535.6,160 535.6,174 527.6,182 487.20000000000005,182 479.20000000000005,174 479.20000000000005,160" fill="#0a0a0a" stroke="#ffffff" stroke-opacity="0.55" stroke-width="1"/><text x="507.40000000000003" y="172" font-family="'Helvetica Neue',Arial,sans-serif" font-size="12.5" fill="#ffffff" fill-opacity="0.9" text-anchor="middle">HTML</text><polygon points="557.6,152 590.4,152 598.4,160 598.4,174 590.4,182 557.6,182 549.6,174 549.6,160" fill="#0a0a0a" stroke="#ffffff" stroke-opacity="0.55" stroke-width="1"/><text x="574.0" y="172" font-family="'Helvetica Neue',Arial,sans-serif" font-size="12.5" fill="#ffffff" fill-opacity="0.9" text-anchor="middle">CSS</text><text x="40" y="240" font-family="'JetBrains Mono','Fira Code','Courier New',monospace" font-size="12.5" letter-spacing="2" fill="#ffffff" fill-opacity="0.7">BACKEND</text><polygon points="238,226 278.4,226 286.4,234 286.4,248 278.4,256 238,256 230,248 230,234" fill="#0a0a0a" stroke="#ffffff" stroke-opacity="0.55" stroke-width="1"/><text x="258.2" y="246" font-family="'Helvetica Neue',Arial,sans-serif" font-size="12.5" fill="#ffffff" fill-opacity="0.9" text-anchor="middle">Node</text><polygon points="308.4,226 371.59999999999997,226 379.59999999999997,234 379.59999999999997,248 371.59999999999997,256 308.4,256 300.4,248 300.4,234" fill="#0a0a0a" stroke="#ffffff" stroke-opacity="0.55" stroke-width="1"/><text x="340.0" y="246" font-family="'Helvetica Neue',Arial,sans-serif" font-size="12.5" fill="#ffffff" fill-opacity="0.9" text-anchor="middle">Express</text><polygon points="401.59999999999997,226 464.79999999999995,226 472.79999999999995,234 472.79999999999995,248 464.79999999999995,256 401.59999999999997,256 393.59999999999997,248 393.59999999999997,234" fill="#0a0a0a" stroke="#ffffff" stroke-opacity="0.55" stroke-width="1"/><text x="433.19999999999993" y="246" font-family="'Helvetica Neue',Arial,sans-serif" font-size="12.5" fill="#ffffff" fill-opacity="0.9" text-anchor="middle">MongoDB</text><polygon points="494.79999999999995,226 565.5999999999999,226 573.5999999999999,234 573.5999999999999,248 565.5999999999999,256 494.79999999999995,256 486.79999999999995,248 486.79999999999995,234" fill="#0a0a0a" stroke="#ffffff" stroke-opacity="0.55" stroke-width="1"/><text x="530.1999999999999" y="246" font-family="'Helvetica Neue',Arial,sans-serif" font-size="12.5" fill="#ffffff" fill-opacity="0.9" text-anchor="middle">Firebase</text><polygon points="595.5999999999999,226 643.5999999999999,226 651.5999999999999,234 651.5999999999999,248 643.5999999999999,256 595.5999999999999,256 587.5999999999999,248 587.5999999999999,234" fill="#0a0a0a" stroke="#ffffff" stroke-opacity="0.55" stroke-width="1"/><text x="619.5999999999999" y="246" font-family="'Helvetica Neue',Arial,sans-serif" font-size="12.5" fill="#ffffff" fill-opacity="0.9" text-anchor="middle">MySQL</text><text x="40" y="314" font-family="'JetBrains Mono','Fira Code','Courier New',monospace" font-size="12.5" letter-spacing="2" fill="#ffffff" fill-opacity="0.7">AI / ML</text><polygon points="238,300 369.6,300 377.6,308 377.6,322 369.6,330 238,330 230,322 230,308" fill="#0a0a0a" stroke="#ffffff" stroke-opacity="0.55" stroke-width="1"/><text x="303.8" y="320" font-family="'Helvetica Neue',Arial,sans-serif" font-size="12.5" fill="#ffffff" fill-opacity="0.9" text-anchor="middle">Machine Learning</text><polygon points="399.6,300 455.20000000000005,300 463.20000000000005,308 463.20000000000005,322 455.20000000000005,330 399.6,330 391.6,322 391.6,308" fill="#0a0a0a" stroke="#ffffff" stroke-opacity="0.55" stroke-width="1"/><text x="427.40000000000003" y="320" font-family="'Helvetica Neue',Arial,sans-serif" font-size="12.5" fill="#ffffff" fill-opacity="0.9" text-anchor="middle">Gemini</text><polygon points="485.20000000000005,300 540.8000000000001,300 548.8000000000001,308 548.8000000000001,322 540.8000000000001,330 485.20000000000005,330 477.20000000000005,322 477.20000000000005,308" fill="#0a0a0a" stroke="#ffffff" stroke-opacity="0.55" stroke-width="1"/><text x="513.0" y="320" font-family="'Helvetica Neue',Arial,sans-serif" font-size="12.5" fill="#ffffff" fill-opacity="0.9" text-anchor="middle">Ollama</text><polygon points="570.8000000000001,300 603.6,300 611.6,308 611.6,322 603.6,330 570.8000000000001,330 562.8000000000001,322 562.8000000000001,308" fill="#0a0a0a" stroke="#ffffff" stroke-opacity="0.55" stroke-width="1"/><text x="587.2" y="320" font-family="'Helvetica Neue',Arial,sans-serif" font-size="12.5" fill="#ffffff" fill-opacity="0.9" text-anchor="middle">RAG</text><text x="40" y="388" font-family="'JetBrains Mono','Fira Code','Courier New',monospace" font-size="12.5" letter-spacing="2" fill="#ffffff" fill-opacity="0.7">IOT</text><polygon points="238,374 301.2,374 309.2,382 309.2,396 301.2,404 238,404 230,396 230,382" fill="#0a0a0a" stroke="#ffffff" stroke-opacity="0.55" stroke-width="1"/><text x="269.6" y="394" font-family="'Helvetica Neue',Arial,sans-serif" font-size="12.5" fill="#ffffff" fill-opacity="0.9" text-anchor="middle">Arduino</text><polygon points="331.2,374 394.4,374 402.4,382 402.4,396 394.4,404 331.2,404 323.2,396 323.2,382" fill="#0a0a0a" stroke="#ffffff" stroke-opacity="0.55" stroke-width="1"/><text x="362.79999999999995" y="394" font-family="'Helvetica Neue',Arial,sans-serif" font-size="12.5" fill="#ffffff" fill-opacity="0.9" text-anchor="middle">ESP8266</text><polygon points="424.4,374 525.5999999999999,374 533.5999999999999,382 533.5999999999999,396 525.5999999999999,404 424.4,404 416.4,396 416.4,382" fill="#0a0a0a" stroke="#ffffff" stroke-opacity="0.55" stroke-width="1"/><text x="475.0" y="394" font-family="'Helvetica Neue',Arial,sans-serif" font-size="12.5" fill="#ffffff" fill-opacity="0.9" text-anchor="middle">Raspberry Pi</text><text x="40" y="462" font-family="'JetBrains Mono','Fira Code','Courier New',monospace" font-size="12.5" letter-spacing="2" fill="#ffffff" fill-opacity="0.7">TOOLS</text><polygon points="238,448 270.8,448 278.8,456 278.8,470 270.8,478 238,478 230,470 230,456" fill="#0a0a0a" stroke="#ffffff" stroke-opacity="0.55" stroke-width="1"/><text x="254.4" y="468" font-family="'Helvetica Neue',Arial,sans-serif" font-size="12.5" fill="#ffffff" fill-opacity="0.9" text-anchor="middle">Git</text><polygon points="300.8,448 356.4,448 364.4,456 364.4,470 356.4,478 300.8,478 292.8,470 292.8,456" fill="#0a0a0a" stroke="#ffffff" stroke-opacity="0.55" stroke-width="1"/><text x="328.6" y="468" font-family="'Helvetica Neue',Arial,sans-serif" font-size="12.5" fill="#ffffff" fill-opacity="0.9" text-anchor="middle">Docker</text><polygon points="386.4,448 457.2,448 465.2,456 465.2,470 457.2,478 386.4,478 378.4,470 378.4,456" fill="#0a0a0a" stroke="#ffffff" stroke-opacity="0.55" stroke-width="1"/><text x="421.79999999999995" y="468" font-family="'Helvetica Neue',Arial,sans-serif" font-size="12.5" fill="#ffffff" fill-opacity="0.9" text-anchor="middle">Power BI</text><polygon points="487.2,448 603.5999999999999,448 611.5999999999999,456 611.5999999999999,470 603.5999999999999,478 487.2,478 479.2,470 479.2,456" fill="#0a0a0a" stroke="#ffffff" stroke-opacity="0.55" stroke-width="1"/><text x="545.4" y="468" font-family="'Helvetica Neue',Arial,sans-serif" font-size="12.5" fill="#ffffff" fill-opacity="0.9" text-anchor="middle">Android Studio</text><polygon points="633.5999999999999,448 696.8,448 704.8,456 704.8,470 696.8,478 633.5999999999999,478 625.5999999999999,470 625.5999999999999,456" fill="#0a0a0a" stroke="#ffffff" stroke-opacity="0.55" stroke-width="1"/><text x="665.1999999999999" y="468" font-family="'Helvetica Neue',Arial,sans-serif" font-size="12.5" fill="#ffffff" fill-opacity="0.9" text-anchor="middle">Blender</text>
  <rect x="0" y="0" width="1200" height="514" fill="url(#scanlines)"/>
</svg>